<?xml version="1.0" encoding="iso-8859-1"?>
<!-- Generator: Adobe Illustrator 19.0.0, SVG Export Plug-In . SVG Version: 6.00 Build 0)  -->
<svg version="1.1" id="Layer_1" xmlns="http://www.w3.org/2000/svg" xmlns:xlink="http://www.w3.org/1999/xlink" x="0px" y="0px"
	 viewBox="0 0 404.4 404.4" style="enable-background:new 0 0 404.4 404.4;" xml:space="preserve">
<path style="fill:#939598;" d="M378.2,18l-14,14"/>
<path style="fill:#6D6E71;" d="M364.2,40c-2,0-4-0.8-5.6-2.4c-3.2-3.2-3.2-8,0-11.2l14-14c3.2-3.2,8-3.2,11.2,0s3.2,8,0,11.2l-14,14
	C368.2,39.2,366.2,40,364.2,40z"/>
<path style="fill:#ACE6ED;" d="M264.2,34l8.4-8.4c23.6-23.6,61.6-23.6,84.8,0l16.8,16.8c23.6,23.6,23.6,61.6,0,84.8l-6,6"/>
<path style="fill:#56B27D;" d="M368.2,141.2c-2,0-4-0.8-5.6-2.4c-3.2-3.2-3.2-8,0-11.2l6-6c10-9.6,15.2-22.4,15.2-36.4
	S378.6,58,368.6,48l-16.8-16.8c-9.6-10-22.4-15.2-36.4-15.2c0,0,0,0-0.4,0c-14,0-26.8,5.6-36.8,15.2l-8.4,8.4c-3.2,3.2-8,3.2-11.2,0
	s-3.2-8,0-11.2L267,20c12.8-12.8,30-20,48-20c0,0,0,0,0.4,0c18,0,35.2,7.2,47.6,20l16.8,16.8c13.2,13.2,20,30.4,20,48.4
	s-7.2,35.2-20,47.6l-6,6C372.2,140.4,370.2,141.2,368.2,141.2z"/>
<path style="fill:#939598;" d="M26.2,18l14,14"/>
<path style="fill:#6D6E71;" d="M40.2,40c-2,0-4-0.8-5.6-2.4l-14-14c-3.2-3.2-3.2-8,0-11.2s8-3.2,11.2,0l14,14c3.2,3.2,3.2,8,0,11.2
	C44.2,39.2,42.2,40,40.2,40z"/>
<path style="fill:#ACE6ED;" d="M140.2,34l-8.4-8.4C108.2,2,70.2,2,47,25.6L30.2,42.4C6.6,66,6.6,104,30.2,127.2l8.4,8.4"/>
<path style="fill:#56B27D;" d="M38.6,143.6c-2,0-4-0.8-5.6-2.4l-8.4-8.4c-12.8-12.8-20-29.6-20-47.6c0-18.4,7.2-35.6,20-48.4
	L41.4,20C54.2,7.2,71,0,89,0c0,0,0,0,0.4,0c18,0,35.2,7.2,48,20l8.4,8.4c3.2,3.2,3.2,8,0,11.2s-8,3.2-11.2,0l-8.4-8.4
	C116.2,21.2,103,16,89.4,16c0,0,0,0-0.4,0c-13.6,0-26.8,5.6-36.4,15.2L35.8,48c-10,10-15.6,23.2-15.2,37.2
	c0,13.6,5.6,26.8,15.2,36.4l8.4,8.4c3.2,3.2,3.2,8,0,11.2C42.6,142.8,40.6,143.6,38.6,143.6z"/>
<path style="fill:#F5E6C6;" d="M300.2,316l34,59.2c4,6.8,1.6,15.2-5.2,19.2l0,0c-6.8,4-15.2,1.6-19.2-5.2l-41.6-72.8"/>
<path style="fill:#C39215;" d="M321.8,404.4c-2,0-4-0.4-5.6-0.8c-5.6-1.6-10.4-5.2-13.2-10.4l-41.6-72.8c-2-4-0.8-8.8,2.8-10.8
	c4-2,8.8-0.8,10.8,2.8l41.6,72.8c0.8,1.6,2,2.4,3.6,2.8c1.2,0.4,2.8,0.4,4.4-0.8c1.6-0.8,2.4-2.4,2.8-3.6s0.4-2.8-0.8-4.4L293.4,320
	c-2-4-0.8-8.8,2.8-10.8c4-2.4,8.8-0.8,10.8,2.8l34,59.2c2.8,5.2,3.6,11.2,2.4,16.8c-1.6,5.6-5.2,10.4-10.4,13.2
	C329.8,403.2,325.8,404.4,321.8,404.4z"/>
<path style="fill:#F5E6C6;" d="M108.2,316l-34,59.2c-4,6.8-1.6,15.2,5.2,19.2l0,0c6.8,4,15.2,1.6,19.2-5.2l41.6-72.8"/>
<path style="fill:#C39215;" d="M86.6,404.4c-4,0-7.6-1.2-11.2-3.2c-10.8-6.4-14.4-19.6-8-30l34-59.2c2-4,7.2-5.2,10.8-2.8
	c4,2,5.2,7.2,2.8,10.8l-34,59.2c-1.6,2.8-0.8,6.4,2.4,8.4c1.6,1.2,3.6,0.8,4.4,0.8c1.6-0.4,2.8-1.6,3.6-2.8l41.6-72.8
	c2-4,7.2-5.2,10.8-2.8c4,2,5.2,7.2,2.8,10.8L105,393.6c-3.2,5.2-7.6,8.8-13.2,10.4C90.2,404,88.2,404.4,86.6,404.4z"/>
<circle style="fill:#FFE53C;" cx="204.2" cy="200" r="176"/>
<path style="fill:#C39215;" d="M204.2,384c-101.6,0-184-82.4-184-184s82.4-184,184-184s184,82.4,184,184S305.8,384,204.2,384z
	 M204.2,32c-92.8,0-168,75.2-168,168s75.2,168,168,168s168-75.2,168-168S297,32,204.2,32z"/>
<path style="fill:#F9D43A;" d="M118.2,347.2c81.2,46.8,184.8,18.8,231.2-62c46.8-80.8,18.8-184.4-61.6-231.2
	C364.6,200.4,287,305.2,118.2,347.2L118.2,347.2z"/>
<g>
	<path style="fill:#C6490F;" d="M204.2,344c-4.4,0-8-3.6-8-8v-4c0-4.4,3.6-8,8-8s8,3.6,8,8v4C212.2,340.4,208.6,344,204.2,344z"/>
	<path style="fill:#C6490F;" d="M72.2,208h-4c-4.4,0-8-3.6-8-8s3.6-8,8-8h4c4.4,0,8,3.6,8,8S76.6,208,72.2,208z"/>
	<path style="fill:#C6490F;" d="M340.2,208h-4c-4.4,0-8-3.6-8-8s3.6-8,8-8h4c4.4,0,8,3.6,8,8S344.6,208,340.2,208z"/>
	<path style="fill:#C6490F;" d="M111,114.8c-2,0-4-0.8-5.6-2.4l-2.8-2.8c-3.2-3.2-3.2-8,0-11.2s8-3.2,11.2,0l2.8,2.8
		c3.2,3.2,3.2,8,0,11.2C115,114,113,114.8,111,114.8z"/>
	<path style="fill:#C6490F;" d="M300.2,304c-2,0-4-0.8-5.6-2.4l-2.8-2.8c-3.2-3.2-3.2-8,0-11.2s8-3.2,11.2,0l2.8,2.8
		c3.2,3.2,3.2,8,0,11.2C304.2,303.2,302.2,304,300.2,304z"/>
	<path style="fill:#C6490F;" d="M108.2,304c-2,0-4-0.8-5.6-2.4c-3.2-3.2-3.2-8,0-11.2l2.8-2.8c3.2-3.2,8-3.2,11.2,0s3.2,8,0,11.2
		l-2.8,2.8C112.2,303.2,110.2,304,108.2,304z"/>
	<path style="fill:#C6490F;" d="M297.4,114.8c-2,0-4-0.8-5.6-2.4c-3.2-3.2-3.2-8,0-11.2l2.8-2.8c3.2-3.2,8-3.2,11.2,0s3.2,8,0,11.2
		l-2.8,2.8C301.4,114,299.4,114.8,297.4,114.8z"/>
	<path style="fill:#C6490F;" d="M150.6,261.6c-2,0-4-0.8-5.6-2.4c-3.2-3.2-3.2-8,0-11.2l51.2-51.2V76c0-4.4,3.6-8,8-8s8,3.6,8,8
		v127.2l-56,56C154.6,260.8,152.6,261.6,150.6,261.6z"/>
</g>
<g>
</g>
<g>
</g>
<g>
</g>
<g>
</g>
<g>
</g>
<g>
</g>
<g>
</g>
<g>
</g>
<g>
</g>
<g>
</g>
<g>
</g>
<g>
</g>
<g>
</g>
<g>
</g>
<g>
</g>
</svg>
